<?xml version="1.0" encoding="iso-8859-1"?>
<!-- Generator: Adobe Illustrator 19.0.0, SVG Export Plug-In . SVG Version: 6.00 Build 0)  -->
<svg xmlns="http://www.w3.org/2000/svg" xmlns:xlink="http://www.w3.org/1999/xlink" version="1.1" id="Capa_1" x="0px" y="0px" viewBox="0 0 291.726 291.726" style="enable-background:new 0 0 291.726 291.726;" xml:space="preserve" width="512px" height="512px">
<g>
	<g>
		<path d="M272.327,47.363H19.399C8.703,47.363,0,56.877,0,68.571v154.584c0,11.694,8.703,21.208,19.399,21.208h252.928    c10.697,0,19.399-9.514,19.399-21.208V68.571C291.727,56.877,283.024,47.363,272.327,47.363z M274.727,223.155    c0,2.529-1.444,4.208-2.399,4.208H19.399c-0.955,0-2.399-1.679-2.399-4.208V68.571c0-2.529,1.444-4.208,2.399-4.208h252.928    c0.955,0,2.399,1.679,2.399,4.208v154.584H274.727z" fill="#FFFFFF"/>
		<path d="M111.441,85.727c-3.288-1.261-7.013-0.362-9.365,2.258l-45,50.105c-2.815,3.135-2.909,7.859-0.22,11.104l45,54.293    c1.647,1.987,4.063,3.076,6.546,3.076c0.964,0,1.938-0.164,2.881-0.504c3.371-1.215,5.617-4.413,5.617-7.996V93.664    C116.9,90.143,114.729,86.986,111.441,85.727z M99.9,174.487l-25.275-30.495L99.9,115.85V174.487z" fill="#FFFFFF"/>
		<path d="M189.871,88.24c-2.287-2.759-6.056-3.787-9.427-2.572c-3.371,1.215-5.617,4.413-5.617,7.996v104.398    c0,3.521,2.171,6.678,5.459,7.938c0.99,0.379,2.02,0.563,3.039,0.563c2.367,0,4.682-0.989,6.326-2.82l45-50.105    c2.815-3.135,2.909-7.859,0.22-11.104L189.871,88.24z M191.826,175.877v-58.638l25.275,30.495L191.826,175.877z" fill="#FFFFFF"/>
		<path d="M146.125,85.164c-4.694,0-8.5,3.806-8.5,8.5v104.398c0,4.694,3.806,8.5,8.5,8.5s8.5-3.806,8.5-8.5V93.664    C154.625,88.97,150.819,85.164,146.125,85.164z" fill="#FFFFFF"/>
	</g>
	<g>
	</g>
	<g>
	</g>
	<g>
	</g>
	<g>
	</g>
	<g>
	</g>
	<g>
	</g>
	<g>
	</g>
	<g>
	</g>
	<g>
	</g>
	<g>
	</g>
	<g>
	</g>
	<g>
	</g>
	<g>
	</g>
	<g>
	</g>
	<g>
	</g>
</g>
<g>
</g>
<g>
</g>
<g>
</g>
<g>
</g>
<g>
</g>
<g>
</g>
<g>
</g>
<g>
</g>
<g>
</g>
<g>
</g>
<g>
</g>
<g>
</g>
<g>
</g>
<g>
</g>
<g>
</g>
</svg>
