<?xml version="1.0" encoding="iso-8859-1"?>
<!-- Generator: Adobe Illustrator 19.0.0, SVG Export Plug-In . SVG Version: 6.00 Build 0)  -->
<svg xmlns="http://www.w3.org/2000/svg" xmlns:xlink="http://www.w3.org/1999/xlink" version="1.1" id="Capa_1" x="0px" y="0px" viewBox="0 0 496 496" style="enable-background:new 0 0 496 496;" xml:space="preserve" width="512px" height="512px">
<g>
	<g>
		<path d="M288,64V0h-80h-80H48v64H0v432h496V64H288z M208,16h64v48h-64V16z M144,16h48v48h-48V16z M64,16h64v48H64V16z M160,480H48    V112h112V480z M288,480H176V112h112V480z M320,480h-16V96H32v384H16V80h32h80h80h80h32V480z M480,480H336V80h144V480z" fill="#000000"/>
	</g>
</g>
<g>
	<g>
		<rect x="160" y="32" width="16" height="16" fill="#000000"/>
	</g>
</g>
<g>
	<g>
		<polygon points="240,20.688 218.344,42.344 229.656,53.656 240,43.312 250.344,53.656 261.656,42.344   " fill="#000000"/>
	</g>
</g>
<g>
	<g>
		<polygon points="106.344,26.344 96,36.688 85.656,26.344 74.344,37.656 96,59.312 117.656,37.656   " fill="#000000"/>
	</g>
</g>
<g>
	<g>
		<path d="M368,192v176h80V192H368z M432,272h-16v16h16v64h-48v-64h16v-16h-16v-64h48V272z" fill="#000000"/>
	</g>
</g>
<g>
	<g>
		<rect x="400" y="232" width="16" height="16" fill="#000000"/>
	</g>
</g>
<g>
	<g>
		<rect x="400" y="312" width="16" height="16" fill="#000000"/>
	</g>
</g>
<g>
	<g>
		<path d="M408,122.664L368,176h80L408,122.664z M408,149.336L416,160h-16L408,149.336z" fill="#000000"/>
	</g>
</g>
<g>
	<g>
		<path d="M368,384l40,53.336L448,384H368z M400,400h16l-8,10.664L400,400z" fill="#000000"/>
	</g>
</g>
<g>
</g>
<g>
</g>
<g>
</g>
<g>
</g>
<g>
</g>
<g>
</g>
<g>
</g>
<g>
</g>
<g>
</g>
<g>
</g>
<g>
</g>
<g>
</g>
<g>
</g>
<g>
</g>
<g>
</g>
</svg>
