<?xml version="1.0" encoding="iso-8859-1"?>
<!-- Generator: Adobe Illustrator 19.0.0, SVG Export Plug-In . SVG Version: 6.00 Build 0)  -->
<svg xmlns="http://www.w3.org/2000/svg" xmlns:xlink="http://www.w3.org/1999/xlink" version="1.1" id="Layer_1" x="0px" y="0px" viewBox="0 0 301.501 301.501" style="enable-background:new 0 0 301.501 301.501;" xml:space="preserve" width="512px" height="512px">
<g id="XMLID_1466_">
	<g>
		<g>
			<path d="M17.501,164.174c0.092,0,0.185-0.001,0.278-0.003c6.115-0.15,10.951-5.229,10.8-11.344l-1.256-51.072l11.337-9.009     c0,0-5.376,41.841-5.953,55.877c-0.138,3.357,0.322,13.437,0.322,13.437c3.281-1.411,5.33-2.054,8.874-3.252l52.879-17.872     l-10.384-1.685c-10.099-1.639-16.052-9.79-17.041-14.795l-8.772-44.426l19.205,42.366c1.539,3.392,4.667,5.768,8.313,6.36     l43.679,7.089c6.005,0.975,11.722-3.09,12.707-9.158c0.98-6.038-3.12-11.727-9.158-12.707l-37.816-6.138L78.121,69.474     l22.844,28.204l2.22-20.841c0.964-9.046-5.57-17.168-14.613-18.164c-19.939-2.153-30.682-3.199-33.649-3.118     c-2.789,0.076-5.659,0.469-8.015,2.342L9.226,87.842c-2.72,2.161-4.267,5.472-4.182,8.943l1.391,56.585     C6.582,159.392,11.51,164.174,17.501,164.174z" fill="#000000"/>
			<path d="M62.559,258.696l4.118-39.31c0.109-1.039,0.091-2.088-0.053-3.123l-2.82-20.26l-11.769,3.978     c-4.989,1.686-9.253,4.566-12.585,8.213l1.401,10.069l-3.01,28.733C43.915,254.853,53.082,258.955,62.559,258.696z" fill="#000000"/>
			<path d="M101.802,247.752l3.28-30.165c0.15-1.375,0.077-2.765-0.215-4.117l-6.308-29.214l-24.601,8.315l5.247,24.303     l-4.259,39.169L101.802,247.752z" fill="#000000"/>
			<circle cx="81.732" cy="24.446" r="24.446" fill="#000000"/>
			<path d="M296.366,202.43c-1.693-1.255-3.88-1.628-5.893-1.006L73.948,268.255c-22.335,6.896-46.039-6.057-52.288-28.6     c-5.885-21.235,5.858-43.396,26.733-50.451l245.836-83.091c5.102-1.724,7.84-7.257,6.115-12.358     c-1.724-5.102-7.258-7.838-12.358-6.115L151.33,133.828c-4.002,8.867-13.462,14.1-23.254,12.51l-9.295-1.509L42.149,170.73     c-30.674,10.367-47.928,42.93-39.281,74.133c5.511,19.885,21.262,36.717,42.722,42.55c-4.164,1.286-30.945,9.552-35.311,10.901     c-0.77,0.238-1.251,1.003-1.131,1.8s0.805,1.386,1.611,1.386h284.963c1.786,0,3.232-1.447,3.232-3.232v-67.159l0.09-23.334     C299.053,205.669,298.058,203.685,296.366,202.43z" fill="#000000"/>
		</g>
	</g>
</g>
<g>
</g>
<g>
</g>
<g>
</g>
<g>
</g>
<g>
</g>
<g>
</g>
<g>
</g>
<g>
</g>
<g>
</g>
<g>
</g>
<g>
</g>
<g>
</g>
<g>
</g>
<g>
</g>
<g>
</g>
</svg>
