<?xml version="1.0"?>
<svg xmlns="http://www.w3.org/2000/svg" height="512px" version="1.1" viewBox="1 1 639.99994 639.99994" width="512px">
<g id="surface1">
<path d="M 629.332031 554.667969 L 618.667969 554.667969 L 618.667969 480 C 618.667969 474.109375 613.890625 469.332031 607.996094 469.332031 L 575.996094 469.332031 L 575.996094 416 C 575.996094 410.105469 571.21875 405.332031 565.332031 405.332031 L 533.328125 405.332031 L 533.328125 351.996094 C 533.328125 346.109375 528.554688 341.332031 522.660156 341.332031 L 447.996094 341.332031 L 447.996094 10.667969 C 447.996094 4.773438 443.222656 0 437.328125 0 C 431.441406 0 426.660156 4.773438 426.660156 10.667969 L 426.660156 192 L 405.328125 192 L 405.328125 10.667969 C 405.328125 4.773438 400.550781 0 394.664062 0 C 388.769531 0 383.992188 4.773438 383.992188 10.667969 L 383.992188 192 L 362.660156 192 L 362.660156 10.667969 C 362.660156 4.773438 357.886719 0 351.992188 0 C 346.101562 0 341.328125 4.773438 341.328125 10.667969 L 341.328125 554.667969 L 170.667969 554.667969 L 170.667969 10.667969 C 170.667969 4.773438 165.886719 0 160 0 C 154.105469 0 149.332031 4.773438 149.332031 10.667969 L 149.332031 192 L 127.996094 192 L 127.996094 10.667969 C 127.996094 4.773438 123.222656 0 117.332031 0 C 111.441406 0 106.664062 4.773438 106.664062 10.667969 L 106.664062 192 L 85.332031 192 L 85.332031 10.667969 C 85.332031 4.773438 80.554688 0 74.667969 0 C 68.773438 0 64 4.773438 64 10.667969 L 64 554.667969 L 10.667969 554.667969 C 4.773438 554.667969 0 559.441406 0 565.332031 L 0 629.335938 C 0 635.222656 4.773438 640 10.667969 640 L 629.335938 640 C 635.222656 640 640 635.222656 640 629.335938 L 640 565.332031 C 640 559.441406 635.222656 554.667969 629.332031 554.667969 Z M 597.332031 554.667969 L 447.996094 554.667969 L 447.996094 490.667969 L 597.332031 490.667969 Z M 554.667969 469.332031 L 447.996094 469.332031 L 447.996094 426.664062 L 554.667969 426.664062 Z M 512 362.664062 L 512 405.332031 L 447.996094 405.332031 L 447.996094 362.664062 Z M 362.664062 213.335938 L 426.664062 213.335938 L 426.664062 554.667969 L 362.664062 554.667969 Z M 85.332031 213.335938 L 149.332031 213.335938 L 149.332031 554.667969 L 85.332031 554.667969 Z M 618.667969 618.667969 L 21.332031 618.667969 L 21.332031 576 L 618.667969 576 Z M 618.667969 618.667969 " style=" fill-rule:nonzero;fill-opacity:1;" stroke="#FFFFFF" fill="#FFFFFF"/>
</g>
</svg>
