<?xml version="1.0" encoding="utf-8"?>
<!-- Generator: Adobe Illustrator 16.0.0, SVG Export Plug-In . SVG Version: 6.00 Build 0)  -->
<!DOCTYPE svg PUBLIC "-//W3C//DTD SVG 1.1//EN" "http://www.w3.org/Graphics/SVG/1.1/DTD/svg11.dtd">
<svg xmlns="http://www.w3.org/2000/svg" xmlns:xlink="http://www.w3.org/1999/xlink" viewBox="0 0 409.92 407.298">
<path d="M59.73,68.466c-14.136,0-25.597,11.461-25.597,25.598v68.265h17.066V94.064c0-4.711,3.821-8.531,8.531-8.531h204.801V68.466
	H59.73z M59.73,68.466"/>
<g>
	<defs>
		<rect id="SVGID_1_" width="409.92" height="410.88"/>
	</defs>
	<clipPath id="SVGID_2_">
		<use xlink:href="#SVGID_1_"  overflow="visible"/>
	</clipPath>
	<path clip-path="url(#SVGID_2_)" d="M59.73,324.466c-4.71,0-8.531-3.819-8.531-8.534V230.6H34.133v85.332
		c0,14.137,11.461,25.602,25.597,25.602h85.336v-17.067H59.73z M59.73,324.466"/>
	<path clip-path="url(#SVGID_2_)" d="M270.566,346.47L63.324,139.232c-3.332-3.332-8.734-3.332-12.066,0L2.5,187.99
		c-3.332,3.332-3.332,8.734,0,12.066l207.238,207.242c1.602,1.603,3.77,2.5,6.035,2.5c2.262,0,4.43-0.901,6.031-2.5l48.758-48.762
		C273.895,355.204,273.895,349.802,270.566,346.47L270.566,346.47z M215.773,389.197L20.598,194.025l36.695-36.696l195.172,195.176
		L215.773,389.197z M215.773,389.197"/>
</g>
<path d="M375.465,324.466h-128v17.067h93.867v42.664c0,4.714,3.82,8.535,8.531,8.535h25.602c18.852,0,34.133-15.281,34.133-34.133
	C409.598,339.747,394.316,324.466,375.465,324.466L375.465,324.466z M375.465,375.665h-17.066v-34.132h17.066
	c9.426,0,17.066,7.64,17.066,17.066C392.531,368.025,384.891,375.665,375.465,375.665L375.465,375.665z M375.465,375.665"/>
<path d="M375.465,68.466h-42.668v17.067h42.668c9.426,0,17.066,7.64,17.066,17.066v256h17.066v-256
	C409.598,83.747,394.316,68.466,375.465,68.466L375.465,68.466z M375.465,68.466"/>
<path d="M130.5,267.232l25.602-25.603l12.066,12.067l-25.602,25.601L130.5,267.232z M130.5,267.232"/>
<path d="M96.367,233.1l25.602-25.603l12.066,12.067l-25.601,25.601L96.367,233.1z M96.367,233.1"/>
<path d="M164.613,301.365l25.602-25.603l12.07,12.066l-25.601,25.606L164.613,301.365z M164.613,301.365"/>
<path d="M198.762,335.518l25.601-25.603l12.07,12.067l-25.602,25.601L198.762,335.518z M198.762,335.518"/>
<g>
	<defs>
		<rect id="SVGID_3_" width="409.92" height="410.88"/>
	</defs>
	<clipPath id="SVGID_4_">
		<use xlink:href="#SVGID_3_"  overflow="visible"/>
	</clipPath>
	<path clip-path="url(#SVGID_4_)" d="M62.211,198.966l25.601-25.601l12.067,12.066l-25.602,25.602L62.211,198.966z M62.211,198.966"
		/>
	<path clip-path="url(#SVGID_4_)" d="M368.074,19.38L356.281,7.587c-9.977-9.522-25.684-9.522-35.66,0L190.863,137.345
		c-3.332,3.332-3.332,8.734,0,12.066l35.387,35.387c1.598,1.61,3.77,2.508,6.035,2.5c2.262,0,4.43-0.898,6.031-2.5l129.77-129.769
		C377.93,45.181,377.922,29.22,368.074,19.38L368.074,19.38z M356.02,42.966L232.285,166.701l-23.324-23.321L332.695,19.654
		c3.223-3.078,8.297-3.078,11.52,0l11.805,11.785c0,0,0,0.004,0.004,0.004C359.203,34.626,359.199,39.786,356.02,42.966
		L356.02,42.966z M356.02,42.966"/>
</g>
<path d="M229.543,170.677l-36.828,12.297l12.297-36.891l-16.215-5.402l-17.695,53.086c-0.293,0.871-0.438,1.781-0.438,2.699
	c0,4.715,3.82,8.531,8.535,8.531c0.903,0.004,1.801-0.136,2.66-0.41l53.086-17.699L229.543,170.677z M229.543,170.677"/>
<path d="M297.023,43.24l12.066-12.067l35.391,35.391L332.41,78.63L297.023,43.24z M297.023,43.24"/>
<rect x="179.199" y="187.931" width="128" height="17.066"/>
<rect x="324.266" y="187.931" width="17.066" height="17.066"/>
<rect x="358.398" y="187.931" width="17.066" height="17.066"/>
</svg>
