<?xml version="1.0" encoding="utf-8"?>
<!-- Generator: Adobe Illustrator 16.0.0, SVG Export Plug-In . SVG Version: 6.00 Build 0)  -->
<!DOCTYPE svg PUBLIC "-//W3C//DTD SVG 1.1//EN" "http://www.w3.org/Graphics/SVG/1.1/DTD/svg11.dtd">
<svg version="1.1" id="Layer_1" xmlns="http://www.w3.org/2000/svg" xmlns:xlink="http://www.w3.org/1999/xlink" x="0px" y="0px"
	 width="595.279px" height="62.346px" viewBox="0 390.003 595.279 62.346" enable-background="new 0 390.003 595.279 62.346"
	 xml:space="preserve">
<g>
	<path fill="#000000" d="M0,396.007c0-3.232,2.309-5.542,5.542-5.542h21.705c7.851,0,13.854,2.309,17.549,6.003
		c3.232,3.233,5.08,7.851,5.08,12.931l0,0c0,9.698-5.542,15.702-13.854,18.01l11.545,14.779c0.924,1.385,1.848,2.309,1.848,4.156
		c0,2.771-2.31,5.08-5.08,5.08c-2.309,0-4.156-0.924-5.08-2.771l-15.239-18.473H10.621v16.164c0,2.771-2.309,5.08-5.079,5.08
		C2.309,451.886,0,449.578,0,446.806V396.007z M26.323,420.945c7.851,0,12.469-4.157,12.469-10.16l0,0
		c0-6.465-4.618-10.16-12.469-10.16H10.621v20.32H26.323z"/>
	<path fill="#000000" d="M62.807,445.882v-49.875c0-3.232,2.31-5.542,5.542-5.542h35.56c2.771,0,4.618,2.309,4.618,4.618
		c0,2.771-2.309,4.618-4.618,4.618H73.891v15.702h26.323c2.771,0,4.618,2.309,4.618,5.08c0,2.77-2.31,4.618-4.618,4.618H73.891
		v16.164h30.479c2.771,0,4.618,2.309,4.618,4.617c0,2.771-2.31,4.619-4.618,4.619H68.349
		C65.116,451.425,62.807,449.117,62.807,445.882z"/>
	<path fill="#000000" d="M120.995,395.545c0-2.771,2.31-5.08,5.542-5.08c2.771,0,5.08,2.309,5.08,5.08v46.181h27.709
		c2.771,0,5.08,2.311,5.08,5.08c0,2.771-2.31,5.08-5.08,5.08h-32.789c-3.232,0-5.542-2.309-5.542-5.541V395.545z"/>
	<path fill="#000000" d="M171.333,444.498l22.629-50.338c1.386-2.771,3.695-4.618,6.466-4.618h0.462c3.232,0,5.08,1.847,6.465,4.156
		l22.63,50.339c0.461,0.924,0.461,1.385,0.461,2.309c0,2.771-2.309,5.08-5.079,5.08c-2.31,0-4.157-1.387-5.08-3.695l-5.08-11.545
		H185.65l-5.08,11.545c-0.923,2.309-2.771,3.232-5.08,3.232c-2.771,0-5.079-2.309-5.079-5.08
		C170.871,446.345,170.871,445.421,171.333,444.498z M211.512,427.41l-10.622-24.476l-10.622,24.476H211.512z"/>
	<path fill="#000000" d="M240.144,443.113l18.011-22.629l-17.087-21.244c-0.924-0.924-1.847-2.309-1.847-4.156
		c0-2.771,2.309-5.08,5.079-5.08c2.31,0,3.695,0.924,5.08,2.771l15.24,20.32l15.24-19.858c1.385-1.848,2.771-2.771,5.079-2.771
		c2.31,0,5.08,1.847,5.08,5.08c0,1.385-0.462,2.771-1.847,4.156l-17.088,21.244l18.012,22.167c0.923,0.924,1.847,2.309,1.847,4.156
		c0,2.77-2.309,5.08-5.08,5.08c-2.309,0-3.694-0.924-5.08-2.771l-16.163-21.244l-16.164,20.783c-1.385,1.846-2.771,2.77-5.079,2.77
		c-2.31,0-5.08-1.848-5.08-5.08C238.297,445.421,239.221,444.037,240.144,443.113z"/>
	<path fill="#000000" d="M321.885,394.622h-19.396c-0.923,0-2.309-0.924-2.309-2.309c0-0.924,0.924-2.309,2.309-2.309H345.9
		c0.924,0,2.309,0.924,2.309,2.309c0,0.924-0.923,2.309-2.309,2.309h-19.396v54.956c0,1.385-0.924,2.309-2.309,2.309
		c-1.386,0-2.31-0.924-2.31-2.309V394.622L321.885,394.622z"/>
	<path fill="#000000" d="M353.75,421.407L353.75,421.407c0-16.625,12.47-31.865,30.48-31.865c18.473,0,30.479,14.778,30.479,31.404
		l0,0c0,16.625-12.469,31.404-30.479,31.404C365.758,452.349,353.75,438.033,353.75,421.407z M410.092,421.407L410.092,421.407
		c0-15.24-11.084-27.709-25.861-27.709c-15.24,0-25.862,12.007-25.862,27.248l0,0c0,15.24,11.084,27.248,25.862,27.248
		C399.47,448.193,410.092,436.185,410.092,421.407z"/>
	<path fill="#000000" d="M427.641,421.407L427.641,421.407c0-16.625,12.469-31.865,30.479-31.865
		c18.473,0,30.48,14.778,30.48,31.404l0,0c0,16.625-12.469,31.404-30.48,31.404C439.649,452.349,427.641,438.033,427.641,421.407z
		 M484.445,421.407L484.445,421.407c0-15.24-11.084-27.709-25.862-27.709c-15.239,0-25.861,12.007-25.861,27.248l0,0
		c0,15.24,11.084,27.248,25.861,27.248C473.361,448.193,484.445,436.185,484.445,421.407z"/>
	<path fill="#000000" d="M501.07,392.313c0-1.385,0.924-2.309,2.31-2.309c1.385,0,2.309,0.924,2.309,2.309v54.957h34.175
		c0.923,0,2.309,0.924,2.309,2.309c0,0.924-0.924,2.309-2.309,2.309h-36.483c-1.386,0-2.31-0.924-2.31-2.309V392.313z"/>
	<path fill="#000000" d="M552.331,443.574c-0.462-0.461-0.924-0.924-0.924-1.848c0-1.385,0.924-2.309,2.31-2.309
		c0.461,0,0.923,0.463,1.385,0.463c6.004,5.541,12.008,7.85,20.32,7.85c9.236,0,15.24-5.08,15.24-12.006l0,0
		c0-6.467-3.233-10.16-17.088-12.932c-14.777-2.771-20.319-7.851-20.319-17.087l0,0c0-9.236,8.313-16.164,19.396-16.164
		c8.313,0,13.855,2.309,19.396,6.465c0.462,0.462,0.924,0.924,0.924,1.848c0,1.385-0.924,2.309-2.309,2.309
		c-0.462,0-0.924,0-1.386-0.462c-5.08-4.156-10.622-5.542-16.626-5.542c-8.774,0-14.777,5.08-14.777,11.545l0,0
		c0,6.465,3.232,10.16,17.549,13.393c13.854,2.771,19.858,7.851,19.858,16.626l0,0c0,9.697-8.313,16.625-20.32,16.625
		C566.186,452.349,558.797,449.578,552.331,443.574z"/>
</g>
</svg>
