<svg fill="#242a35" width="29" height="41" xmlns="http://www.w3.org/2000/svg" xmlns:xlink="http://www.w3.org/1999/xlink" viewBox="0 0 49.602 72">
<g>
<path d="M48.43,17.922c-0.258-0.961-0.777-1.985-1.164-2.883C42.66,3.969,32.594,0,24.465,0C13.586,0,1.602,7.297,0,22.336v3.07
c0,0.129,0.043,1.281,0.105,1.859c0.899,7.164,6.555,14.782,10.778,21.95c4.543,7.68,9.258,15.234,13.929,22.785
c2.883-4.93,5.754-9.922,8.567-14.723c0.77-1.406,1.66-2.813,2.426-4.156c0.512-0.898,1.492-1.793,1.938-2.625
c4.543-8.319,11.859-16.703,11.859-24.961v-3.391C49.602,21.25,48.492,18.113,48.43,17.922L48.43,17.922z M24.664,33.344
c-3.199,0-6.699-1.598-8.426-6.016C15.98,26.625,16,25.215,16,25.086v-1.985c0-5.629,4.781-8.191,8.941-8.191
c5.118,0,9.079,4.098,9.079,9.219C34.02,29.25,29.785,33.344,24.664,33.344L24.664,33.344z M24.664,33.344"/>
</g>
</svg>