<?xml version="1.0" encoding="iso-8859-1"?>
<!-- Generator: Adobe Illustrator 19.0.0, SVG Export Plug-In . SVG Version: 6.00 Build 0)  -->
<svg xmlns="http://www.w3.org/2000/svg" xmlns:xlink="http://www.w3.org/1999/xlink" version="1.1" id="Capa_1" x="0px" y="0px" viewBox="0 0 422.4 422.4" style="enable-background:new 0 0 422.4 422.4;" xml:space="preserve" width="512px" height="512px">
<g>
	<g>
		<path d="M367.8,292.4h-54.4V7.2c0-4-3.2-7.2-7.2-7.2H115.8c-4,0-7.2,3.2-7.2,7.2v285.6h-54c-4,0-7.2,3.2-7.2,7.2v115.2    c0,4,3.2,7.2,7.2,7.2h313.2c4,0,7.2-3.2,7.2-7.2V299.6C375,295.6,371.8,292.4,367.8,292.4z M108.6,408H61.4V306.8h47.2V408z     M186.6,54.4v-40h49.2v40.4h-49.2V54.4z M186.6,68.8h48.8v46.8h-48.8V68.8z M186.6,130h49.2v46.8h-49.2V130z M186.6,191.6h49.2    v46.8h-49.2V191.6z M186.6,252.8h48.8v40h-48.8V252.8z M123,14.4h49.2v40.4H123V14.4z M123,68.8h49.2V116H123V68.8z M123,130h49.2    v47.2H123V130z M123,191.6h49.2v46.8H123V191.6z M123,252.8h49.2v40H123V252.8z M203.8,408h-41.2v-60.8h41.2V408z M259.4,408.4    h-41.2v-61.2h41.2V408.4z M298.6,408h-25.2v-68c0-4-3.2-7.2-7.2-7.2H155.4c-4,0-7.2,3.2-7.2,7.2v68.4H123V306.8h56.4h63.2h56V408z     M299,292.4h-49.2v-40H299V292.4z M299,238.4h-49.2v-46.8H299V238.4z M299,176.8h-49.2V130H299V176.8z M299,116h-49.2V68.8H299    V116z M299,54.4h-49.2v-40H299V54.4z M360.6,408h-47.2V306.8h47.2V408z" fill="#FFFFFF"/>
	</g>
</g>
<g>
</g>
<g>
</g>
<g>
</g>
<g>
</g>
<g>
</g>
<g>
</g>
<g>
</g>
<g>
</g>
<g>
</g>
<g>
</g>
<g>
</g>
<g>
</g>
<g>
</g>
<g>
</g>
<g>
</g>
</svg>
